<svg width="1063" height="1390" xmlns="http://www.w3.org/2000/svg" xmlns:xlink="http://www.w3.org/1999/xlink" xml:space="preserve" overflow="hidden"><g transform="translate(-822 -367)"><path d="M964 735.669C964 683.385 1006.38 641 1058.67 641L1415.5 641 1415.5 641 1609 641 1643.33 641C1695.62 641 1738 683.385 1738 735.669L1738 972.333 1738 972.333 1738 1114.33 1738 1114.33C1738 1166.62 1695.62 1209 1643.33 1209L1609 1209 1519.34 1293.75 1415.5 1209 1058.67 1209C1006.38 1209 964 1166.62 964 1114.33L964 1114.33 964 972.333 964 972.333Z" stroke="#262626" stroke-width="27.5" stroke-miterlimit="8" fill="#4EA72E" fill-rule="evenodd" fill-opacity="0.4"/><path d="M1115 858.5C1115 817.907 1144.33 785 1180.5 785 1216.67 785 1246 817.907 1246 858.5 1246 899.093 1216.67 932 1180.5 932 1144.33 932 1115 899.093 1115 858.5Z" fill="#262626" fill-rule="evenodd"/><path d="M1454 858.5C1454 817.907 1483.33 785 1519.5 785 1555.67 785 1585 817.907 1585 858.5 1585 899.093 1555.67 932 1519.5 932 1483.33 932 1454 899.093 1454 858.5Z" fill="#262626" fill-rule="evenodd"/><path d="M1468.36 1048.59C1403.93 1113.03 1299.45 1113.03 1235.02 1048.59" stroke="#262626" stroke-width="27.5" stroke-miterlimit="8" fill="none" fill-rule="evenodd"/><path d="M955.5 508.5C955.5 438.36 1012.14 381.5 1082 381.5 1151.86 381.5 1208.5 438.36 1208.5 508.5 1208.5 578.64 1151.86 635.5 1082 635.5 1012.14 635.5 955.5 578.64 955.5 508.5Z" stroke="#262626" stroke-width="20.625" stroke-miterlimit="8" fill="#FFFF00" fill-rule="evenodd" fill-opacity="0.65098"/><path d="M995 486C995 468.327 1007.98 454 1024 454 1040.02 454 1053 468.327 1053 486 1053 503.673 1040.02 518 1024 518 1007.98 518 995 503.673 995 486Z" fill="#262626" fill-rule="evenodd"/><path d="M1132.25 558.499C1104.21 586.536 1058.76 586.536 1030.72 558.499" stroke="#262626" stroke-width="27.5" stroke-miterlimit="8" fill="none" fill-rule="evenodd"/><path d="M1110 486C1110 468.327 1122.76 454 1138.5 454 1154.24 454 1167 468.327 1167 486 1167 503.673 1154.24 518 1138.5 518 1122.76 518 1110 503.673 1110 486Z" fill="#262626" fill-rule="evenodd"/><path d="M1485.5 504.5C1485.5 434.36 1542.14 377.5 1612 377.5 1681.86 377.5 1738.5 434.36 1738.5 504.5 1738.5 574.64 1681.86 631.5 1612 631.5 1542.14 631.5 1485.5 574.64 1485.5 504.5Z" stroke="#262626" stroke-width="20.625" stroke-miterlimit="8" fill="#C00000" fill-rule="evenodd" fill-opacity="0.54902"/><path d="M1525 482.5C1525 465.103 1537.76 451 1553.5 451 1569.24 451 1582 465.103 1582 482.5 1582 499.897 1569.24 514 1553.5 514 1537.76 514 1525 499.897 1525 482.5Z" fill="#262626" fill-rule="evenodd"/><path d="M1640 482.5C1640 465.103 1652.76 451 1668.5 451 1684.24 451 1697 465.103 1697 482.5 1697 499.897 1684.24 514 1668.5 514 1652.76 514 1640 499.897 1640 482.5Z" fill="#262626" fill-rule="evenodd"/><path d="M1560.64 576.021C1588.68 547.984 1634.14 547.984 1662.17 576.021" stroke="#262626" stroke-width="27.5" stroke-miterlimit="8" fill="none" fill-rule="evenodd"/><path d="M1215.5 507C1215.5 437.136 1272.14 380.5 1342 380.5 1411.86 380.5 1468.5 437.136 1468.5 507 1468.5 576.864 1411.86 633.5 1342 633.5 1272.14 633.5 1215.5 576.864 1215.5 507Z" stroke="#262626" stroke-width="20.625" stroke-miterlimit="8" fill="#FF9900" fill-rule="evenodd" fill-opacity="0.65098"/><path d="M1255 485C1255 467.327 1267.98 453 1284 453 1300.02 453 1313 467.327 1313 485 1313 502.673 1300.02 517 1284 517 1267.98 517 1255 502.673 1255 485Z" fill="#262626" fill-rule="evenodd"/><path d="M1370 485C1370 467.327 1382.76 453 1398.5 453 1414.24 453 1427 467.327 1427 485 1427 502.673 1414.24 517 1398.5 517 1382.76 517 1370 502.673 1370 485Z" fill="#262626" fill-rule="evenodd"/><path d="M1281 569 1401.7 569" stroke="#262626" stroke-width="27.5" stroke-miterlimit="8" fill="none" fill-rule="evenodd"/><text fill="#262626" font-family="Aptos Black,Aptos Black_MSFontService,sans-serif" font-weight="900" font-size="229" transform="matrix(1 0 0 1 959.849 1556)">Moodiy</text></g></svg>